<svg width="60" height="60" viewBox="0 0 60 60" fill="none" xmlns="http://www.w3.org/2000/svg">
<path fill-rule="evenodd" clip-rule="evenodd" d="M30 56.25C44.4973 56.25 56.25 44.4973 56.25 30C56.25 15.5027 44.4973 3.74998 30 3.74998C15.5027 3.74998 3.75004 15.5027 3.75004 30C3.75004 44.4973 15.5027 56.25 30 56.25ZM30 59.1666C46.1088 59.1666 59.1667 46.1087 59.1667 30C59.1667 13.8912 46.1088 0.833313 30 0.833313C13.8913 0.833313 0.833374 13.8912 0.833374 30C0.833374 46.1087 13.8913 59.1666 30 59.1666Z" fill="black"/>
<path d="M12.5 46.9604C12.5 45.4539 13.6258 44.1808 15.125 44.0146C26.376 42.7691 33.675 42.8814 44.9012 44.0423C45.4618 44.1011 45.9932 44.322 46.4303 44.6779C46.8675 45.0337 47.1915 45.5092 47.3629 46.0462C47.5343 46.5832 47.5455 47.1585 47.3953 47.7018C47.2451 48.2451 46.94 48.7329 46.5171 49.1056C33.2681 60.6541 25.6965 60.4952 13.4333 49.1173C12.8354 48.5631 12.5 47.7756 12.5 46.9618V46.9604Z" fill="black"/>
<path fill-rule="evenodd" clip-rule="evenodd" d="M44.7511 45.4919C33.6138 44.3398 26.4199 44.2319 15.284 45.4642C14.9175 45.5069 14.5796 45.6833 14.335 45.9596C14.0904 46.236 13.9563 46.5928 13.9584 46.9619C13.9584 47.3789 14.132 47.7741 14.4251 48.0483C20.5034 53.6862 25.1088 56.2339 29.6107 56.25C34.1286 56.266 38.982 53.7387 45.559 48.0075C45.768 47.8215 45.9184 47.5788 45.992 47.309C46.0656 47.0391 46.0593 46.7537 45.9737 46.4873C45.8881 46.221 45.727 45.9853 45.51 45.8089C45.2929 45.6324 45.0293 45.5228 44.7511 45.4933V45.4919ZM14.9647 42.565C26.3338 41.3064 33.7393 41.4202 45.053 42.5912C45.8964 42.6793 46.6958 43.0113 47.3533 43.5466C48.0109 44.082 48.4981 44.7974 48.7553 45.6054C49.0125 46.4134 49.0286 47.2789 48.8015 48.0958C48.5744 48.9128 48.114 49.6458 47.4768 50.2052C40.8049 56.021 35.2486 59.1885 29.602 59.1667C23.9393 59.1462 18.628 55.9248 12.4432 50.1862C12.0004 49.7738 11.6474 49.2744 11.4063 48.7194C11.1651 48.1644 11.041 47.5656 11.0418 46.9604C11.0396 45.8731 11.4387 44.8233 12.1626 44.0119C12.8864 43.2006 13.8842 42.6849 14.9647 42.5635V42.565Z" fill="black"/>
<path d="M41.6667 24.1667C41.6667 27.2609 40.4375 30.2283 38.2496 32.4162C36.0617 34.6042 33.0942 35.8333 30 35.8333C26.9058 35.8333 23.9384 34.6042 21.7505 32.4162C19.5625 30.2283 18.3334 27.2609 18.3334 24.1667C18.3334 21.0725 19.5625 18.105 21.7505 15.9171C23.9384 13.7292 26.9058 12.5 30 12.5C33.0942 12.5 36.0617 13.7292 38.2496 15.9171C40.4375 18.105 41.6667 21.0725 41.6667 24.1667Z" fill="black"/>
<path fill-rule="evenodd" clip-rule="evenodd" d="M30 32.9167C32.3207 32.9167 34.5463 31.9948 36.1872 30.3539C37.8282 28.7129 38.75 26.4873 38.75 24.1667C38.75 21.846 37.8282 19.6204 36.1872 17.9795C34.5463 16.3385 32.3207 15.4167 30 15.4167C27.6794 15.4167 25.4538 16.3385 23.8129 17.9795C22.1719 19.6204 21.25 21.846 21.25 24.1667C21.25 26.4873 22.1719 28.7129 23.8129 30.3539C25.4538 31.9948 27.6794 32.9167 30 32.9167ZM30 35.8333C33.0942 35.8333 36.0617 34.6042 38.2496 32.4162C40.4375 30.2283 41.6667 27.2609 41.6667 24.1667C41.6667 21.0725 40.4375 18.105 38.2496 15.9171C36.0617 13.7292 33.0942 12.5 30 12.5C26.9058 12.5 23.9384 13.7292 21.7505 15.9171C19.5625 18.105 18.3334 21.0725 18.3334 24.1667C18.3334 27.2609 19.5625 30.2283 21.7505 32.4162C23.9384 34.6042 26.9058 35.8333 30 35.8333Z" fill="black"/>
</svg>
